# xmcd
#
# Track frame offsets:
#	150
#	15855
#	36161
#	54168
#	72798
#	92156
#	112816
#	133397
#	150671
#	173021
#	194105
#	217972
#	238895
#	263414
#	294546
#	319180
#	340587
#
# Disc length: 4744
#
# Revision: 1
# Processed by: cddbd v1.5.1PL0 Copyright (c) Steve Scherf et al.
# Submitted via: ExactAudioCopy v0.95a3
# Normalized: r0:TRMNUM
#
DISCID=e9128611
DTITLE=Peter Green - Reaching The Gold
DYEAR=2003
DGENRE=Blues
TTITLE0=Ain't Nothin' Gonna Change It
TTITLE1=Look Out For Yourself
TTITLE2=Coll Down
TTITLE3=Dangerous Man
TTITLE4=Needs Must The Devil Drives
TTITLE5=Must Be A Fool
TTITLE6=Don't Walk Away
TTITLE7=Can You Tell Me Why [A.K.A. Legal Fee Blues]
TTITLE8=Spiritual Thief
TTITLE9=I'm Ready For You
TTITLE10=Smile
TTITLE11=Nice Girl Like You
TTITLE12=When Somebody Cares
TTITLE13=Black Magic Woman
TTITLE14=It Takes Time
TTITLE15=Green Manalishi
TTITLE16=Albatross
EXTD=
EXTT0=
EXTT1=
EXTT2=
EXTT3=
EXTT4=
EXTT5=
EXTT6=
EXTT7=
EXTT8=
EXTT9=
EXTT10=
EXTT11=
EXTT12=
EXTT13=
EXTT14=
EXTT15=
EXTT16=
PLAYORDER=
